<?xml version="1.0" encoding="UTF-8" standalone="no"?>
<!-- Created with Inkscape (http://www.inkscape.org/) -->

<svg
   width="38.915958mm"
   height="39.301636mm"
   viewBox="0 0 38.915959 39.301636"
   version="1.1"
   id="svg5"
   sodipodi:docname="apitahya_alt.svg"
   inkscape:version="1.2-dev (43ba5fe, 2021-07-07)"
   xmlns:inkscape="http://www.inkscape.org/namespaces/inkscape"
   xmlns:sodipodi="http://sodipodi.sourceforge.net/DTD/sodipodi-0.dtd"
   xmlns="http://www.w3.org/2000/svg"
   xmlns:svg="http://www.w3.org/2000/svg">
  <sodipodi:namedview
     id="namedview7"
     pagecolor="#ffffff"
     bordercolor="#666666"
     borderopacity="1.0"
     inkscape:pageshadow="2"
     inkscape:pageopacity="0.0"
     inkscape:pagecheckerboard="0"
     inkscape:document-units="mm"
     showgrid="false"
     inkscape:zoom="0.49531425"
     inkscape:cx="216.02447"
     inkscape:cy="281.63938"
     inkscape:window-width="1024"
     inkscape:window-height="715"
     inkscape:window-x="-8"
     inkscape:window-y="-8"
     inkscape:window-maximized="1"
     inkscape:current-layer="layer1" />
  <defs
     id="defs2">
    <clipPath
       clipPathUnits="userSpaceOnUse"
       id="clipPath6822">
      <g
         inkscape:label="Clip"
         id="use6824">
        <path
           sodipodi:type="star"
           style="fill:#ff1744;fill-opacity:1;stroke:none;stroke-width:13.2094;stroke-linecap:round;stroke-linejoin:round;stroke-opacity:1"
           id="path6870"
           inkscape:flatsided="true"
           sodipodi:sides="3"
           sodipodi:cx="474.74725"
           sodipodi:cy="-46.400192"
           sodipodi:r1="30.890589"
           sodipodi:r2="15.445294"
           sodipodi:arg1="0.52359878"
           sodipodi:arg2="1.5707963"
           inkscape:rounded="0.07"
           inkscape:randomized="0"
           transform="matrix(0.40218635,-0.40218635,0.40218635,0.40218635,-83.622083,208.48069)"
           inkscape:transform-center-x="-1.9684101"
           inkscape:transform-center-y="1.9684013"
           d="m 501.49929,-30.954898 c -1.87264,3.243512 -51.63143,3.243512 -53.50407,0 -1.87264,-3.243512 23.00675,-46.335883 26.75203,-46.335883 3.74529,0 28.62468,43.092371 26.75204,46.335883 z" />
        <path
           sodipodi:type="star"
           style="fill:#ffffff;fill-opacity:1;stroke:none;stroke-width:13.2094;stroke-linecap:round;stroke-linejoin:round;stroke-opacity:1"
           id="path6872"
           inkscape:flatsided="true"
           sodipodi:sides="3"
           sodipodi:cx="474.74725"
           sodipodi:cy="-46.400192"
           sodipodi:r1="30.890589"
           sodipodi:r2="15.445294"
           sodipodi:arg1="0.52359878"
           sodipodi:arg2="1.5707963"
           inkscape:rounded="0.07"
           inkscape:randomized="0"
           transform="matrix(0.16057049,-0.16057044,0.16057044,0.16057049,27.102567,80.754348)"
           inkscape:transform-center-y="0.78588604"
           inkscape:transform-center-x="-0.78588893"
           d="m 501.49929,-30.954898 c -1.87264,3.243512 -51.63143,3.243512 -53.50407,0 -1.87264,-3.243512 23.00675,-46.335883 26.75203,-46.335883 3.74529,0 28.62468,43.092371 26.75204,46.335883 z" />
        <path
           sodipodi:type="star"
           style="fill:#00e676;fill-opacity:1;stroke:none;stroke-width:13.2094;stroke-linecap:round;stroke-linejoin:round;stroke-opacity:1"
           id="path6874"
           inkscape:flatsided="true"
           sodipodi:sides="3"
           sodipodi:cx="474.74725"
           sodipodi:cy="-46.400192"
           sodipodi:r1="30.890589"
           sodipodi:r2="15.445294"
           sodipodi:arg1="0.52359878"
           sodipodi:arg2="1.5707963"
           inkscape:rounded="0.07"
           inkscape:randomized="0"
           transform="matrix(-0.12849551,0.12849542,-0.12849542,-0.12849551,127.18609,-84.97626)"
           inkscape:transform-center-y="-0.62890922"
           inkscape:transform-center-x="0.62894498"
           d="m 501.49929,-30.954898 c -1.87264,3.243512 -51.63143,3.243512 -53.50407,0 -1.87264,-3.243512 23.00675,-46.335883 26.75203,-46.335883 3.74529,0 28.62468,43.092371 26.75204,46.335883 z" />
      </g>
    </clipPath>
  </defs>
  <g
     inkscape:label="Layer 1"
     inkscape:groupmode="layer"
     id="layer1"
     transform="translate(-64.460241,-48.278607)">
    <g
       inkscape:label="Layer 1"
       id="layer1-8"
       transform="translate(30.271288,144.81828)">
      <path
         id="path6121-8-3-5"
         style="fill:#000000;fill-opacity:1;stroke:none;stroke-width:28.3964;stroke-linecap:round;stroke-linejoin:round;stroke-opacity:1"
         inkscape:transform-center-x="-1.9684101"
         inkscape:transform-center-y="1.9684013"
         d="m 169.17188,-328.23828 c -2.08601,-0.009 -3.47799,0.22994 -4.01172,0.76367 -5.69312,5.69311 21.99259,109.01579 29.76953,111.09961 7.77693,2.08382 83.4139,-73.55314 81.33008,-81.33008 -1.88847,-7.04785 -86.9232,-30.44533 -107.08789,-30.5332 z m 53.12304,21.83203 c 8.05063,0.0351 41.99995,9.37564 42.75391,12.18945 0.83195,3.1049 -29.36581,33.30266 -32.47071,32.47071 -3.10489,-0.83196 -14.1577,-42.08253 -11.88476,-44.35547 0.21309,-0.21309 0.76874,-0.30832 1.60156,-0.30469 z"
         transform="scale(0.26458333)" />
      <path
         sodipodi:type="star"
         style="fill:#000000;fill-opacity:1;stroke:none;stroke-width:13.2094;stroke-linecap:round;stroke-linejoin:round;stroke-opacity:1"
         id="path6121-1-1-4-6"
         inkscape:flatsided="true"
         sodipodi:sides="3"
         sodipodi:cx="474.74725"
         sodipodi:cy="-46.400192"
         sodipodi:r1="30.890589"
         sodipodi:r2="15.445294"
         sodipodi:arg1="0.52359878"
         sodipodi:arg2="1.5707963"
         inkscape:rounded="0.07"
         inkscape:randomized="0"
         transform="matrix(-0.12849551,0.12849542,-0.12849542,-0.12849551,94.65537,-158.079)"
         inkscape:transform-center-y="-0.62890922"
         inkscape:transform-center-x="0.62894498"
         d="m 501.49929,-30.954898 c -1.87264,3.243512 -51.63143,3.243512 -53.50407,0 -1.87264,-3.243512 23.00675,-46.335883 26.75203,-46.335883 3.74529,0 28.62468,43.092371 26.75204,46.335883 z" />
    </g>
  </g>
</svg>
